/* XPM */
static char * iron_xpm[] = {
"40 40 3 1",
" 	c None",
".	c #FFFF00000000",
"X	c #000000000000",
"                                        ",
"                                        ",
"                                        ",
"                                        ",
"                                        ",
"                                        ",
"                                        ",
"                                        ",
"                                        ",
"                                        ",
"                                        ",
"                                        ",
"                                        ",
"                                        ",
"                                        ",
"                                        ",
"                                        ",
"                                        ",
"                                        ",
"                                        ",
"                                        ",
"                                        ",
"                                        ",
"                                        ",
"                                        ",
"                                        ",
"                                        ",
"             ..................         ",
"             ...................        ",
"             ....................       ",
"                             ....       ",
"                              ...       ",
"                              ....      ",
"                              ....      ",
"                               ...      ",
"                               ....     ",
"      XXXXXXXXXXXXXXXXXXXXXXXXX....     ",
"   XXXXXXXXXXXXXXXXXXXXXXXXXXXXX...     ",
" XXXXXXXXXXXXXXXXXXXXXXXXXXXXXXXX.      ",
"XXXXXXXXXXXXXXXXXXXXXXXXXXXXXXXXXXX     "};
